<svg width="1200" height="760" viewBox="0 0 1200 760" fill="none" xmlns="http://www.w3.org/2000/svg" role="img" aria-labelledby="title desc">
  <title id="title">AI-Team CRM demo form</title>
  <desc id="desc">An anonymized CRM intake form mockup with empty fields and no customer data.</desc>
  <defs>
    <linearGradient id="page" x1="0" y1="0" x2="1200" y2="760" gradientUnits="userSpaceOnUse">
      <stop stop-color="#F8FAFC"/>
      <stop offset="1" stop-color="#EEF2F7"/>
    </linearGradient>
    <linearGradient id="orange" x1="0" y1="0" x2="1" y2="1">
      <stop stop-color="#FB923C"/>
      <stop offset="1" stop-color="#F97316"/>
    </linearGradient>
    <filter id="shadow" x="164" y="96" width="872" height="596" filterUnits="userSpaceOnUse" color-interpolation-filters="sRGB">
      <feFlood flood-opacity="0" result="BackgroundImageFix"/>
      <feColorMatrix in="SourceAlpha" type="matrix" values="0 0 0 0 0 0 0 0 0 0 0 0 0 0 0 0 0 0 127 0" result="hardAlpha"/>
      <feOffset dy="16"/>
      <feGaussianBlur stdDeviation="24"/>
      <feComposite in2="hardAlpha" operator="out"/>
      <feColorMatrix type="matrix" values="0 0 0 0 0.03 0 0 0 0 0.06 0 0 0 0 0.11 0 0 0 0.16 0"/>
      <feBlend mode="normal" in2="BackgroundImageFix" result="effect1_dropShadow"/>
      <feBlend mode="normal" in="SourceGraphic" in2="effect1_dropShadow" result="shape"/>
    </filter>
  </defs>

  <rect width="1200" height="760" fill="url(#page)"/>
  <rect x="0" y="0" width="1200" height="68" fill="#FFFFFF"/>
  <rect x="32" y="18" width="32" height="32" rx="9" fill="url(#orange)"/>
  <path d="M50 24L40 40H51L45 52L60 34H49L50 24Z" fill="#FFFFFF"/>
  <text x="78" y="38" fill="#111827" font-family="Inter, Arial, sans-serif" font-size="22" font-weight="800">AI-Team CRM</text>
  <text x="78" y="56" fill="#64748B" font-family="Inter, Arial, sans-serif" font-size="12">Formularz demonstracyjny bez danych klientów</text>
  <rect x="928" y="18" width="92" height="32" rx="11" fill="#F1F5F9"/>
  <text x="955" y="39" fill="#475569" font-family="Inter, Arial, sans-serif" font-size="12" font-weight="700">Kopia</text>
  <rect x="1034" y="18" width="124" height="32" rx="11" fill="#FFF7ED"/>
  <text x="1058" y="39" fill="#EA580C" font-family="Inter, Arial, sans-serif" font-size="12" font-weight="800">Rejestracja</text>

  <g filter="url(#shadow)">
    <rect x="190" y="112" width="820" height="532" rx="24" fill="#FFFFFF"/>
    <text x="224" y="160" fill="#111827" font-family="Inter, Arial, sans-serif" font-size="26" font-weight="800">Nowy klient</text>
    <text x="224" y="184" fill="#64748B" font-family="Inter, Arial, sans-serif" font-size="14">Zbierz dane do wyceny, follow-upu i dokumentów.</text>

    <text x="224" y="234" fill="#EA580C" font-family="Inter, Arial, sans-serif" font-size="12" font-weight="800" letter-spacing="1.8">DANE KONTAKTOWE</text>
    <path d="M224 252H976" stroke="#E5E7EB"/>

    <g font-family="Inter, Arial, sans-serif">
      <text x="224" y="292" fill="#475569" font-size="12" font-weight="800">NAZWA FIRMY</text>
      <rect x="224" y="304" width="330" height="46" rx="10" fill="#FFFFFF" stroke="#CBD5E1"/>
      <text x="244" y="333" fill="#94A3B8" font-size="14">Np. Firma usługowa A</text>

      <text x="584" y="292" fill="#475569" font-size="12" font-weight="800">OSOBA KONTAKTOWA</text>
      <rect x="584" y="304" width="392" height="46" rx="10" fill="#FFFFFF" stroke="#CBD5E1"/>
      <text x="604" y="333" fill="#94A3B8" font-size="14">Imię i nazwisko</text>

      <text x="224" y="386" fill="#475569" font-size="12" font-weight="800">EMAIL</text>
      <rect x="224" y="398" width="330" height="46" rx="10" fill="#FFFFFF" stroke="#CBD5E1"/>
      <text x="244" y="427" fill="#94A3B8" font-size="14">kontakt@firma.pl</text>

      <text x="584" y="386" fill="#475569" font-size="12" font-weight="800">TELEFON</text>
      <rect x="584" y="398" width="190" height="46" rx="10" fill="#FFFFFF" stroke="#CBD5E1"/>
      <text x="604" y="427" fill="#94A3B8" font-size="14">+48 ___ ___ ___</text>

      <text x="804" y="386" fill="#475569" font-size="12" font-weight="800">ŹRÓDŁO LEADU</text>
      <rect x="804" y="398" width="172" height="46" rx="10" fill="#FFFFFF" stroke="#CBD5E1"/>
      <text x="824" y="427" fill="#94A3B8" font-size="14">Strona WWW</text>
    </g>

    <text x="224" y="492" fill="#EA580C" font-family="Inter, Arial, sans-serif" font-size="12" font-weight="800" letter-spacing="1.8">PROCES I KOLEJNY KROK</text>
    <path d="M224 510H976" stroke="#E5E7EB"/>

    <g font-family="Inter, Arial, sans-serif">
      <text x="224" y="550" fill="#475569" font-size="12" font-weight="800">OBSZAR DO AUTOMATYZACJI</text>
      <rect x="224" y="562" width="330" height="46" rx="10" fill="#FFFFFF" stroke="#CBD5E1"/>
      <text x="244" y="591" fill="#94A3B8" font-size="14">CRM, dokumenty, follow-up...</text>

      <text x="584" y="550" fill="#475569" font-size="12" font-weight="800">STATUS</text>
      <rect x="584" y="562" width="190" height="46" rx="10" fill="#FFF7ED" stroke="#FDBA74"/>
      <text x="604" y="591" fill="#C2410C" font-size="14" font-weight="800">Do diagnozy</text>

      <text x="804" y="550" fill="#475569" font-size="12" font-weight="800">FOLLOW-UP</text>
      <rect x="804" y="562" width="172" height="46" rx="10" fill="#ECFDF5" stroke="#86EFAC"/>
      <text x="824" y="591" fill="#15803D" font-size="14" font-weight="800">Jutro 10:00</text>
    </g>
  </g>
</svg>
